<svg xmlns="http://www.w3.org/2000/svg">
<g id="first">
    <path d="M0 12H18V10H0V12ZM0 7H18V5H0V7ZM0 0V2H18V0H0Z" fill="inherit"/>
</g>
<g id="second">
    <path d="M8 17V11H12V17H17V9H20L10 0L0 9H3V17" fill="inherit" />
</g>
<g id="third">
    <path d="M12.421 8.2C12.191 7.9 11.921 7.64 11.661 7.38C11.011 6.78 10.261 6.35 9.63096 5.72C8.17096 4.26 7.85096 1.85 8.78096 0C7.88096 0.23 7.03096 0.75 6.33096 1.32C3.79096 3.4 2.79096 7.07 3.99096 10.22C4.03096 10.32 4.07096 10.42 4.07096 10.55C4.07096 10.77 3.92096 10.97 3.72096 11.05C3.50096 11.15 3.26096 11.09 3.08096 10.93C3.02096 10.88 2.98096 10.83 2.93096 10.76C1.83096 9.33 1.65096 7.28 2.40096 5.64C0.760959 7 -0.109041 9.3 0.0109586 11.47C0.0509586 11.97 0.110959 12.47 0.280959 12.97C0.420959 13.57 0.680959 14.17 1.00096 14.7C2.04096 16.43 3.87096 17.67 5.84096 17.92C7.94096 18.19 10.191 17.8 11.801 16.32C13.601 14.66 14.251 12.02 13.301 9.72L13.171 9.46C12.971 9.01 12.701 8.59 12.391 8.21L12.421 8.2ZM9.32096 14.5C9.04096 14.74 8.59096 15 8.24096 15.1C7.14096 15.48 6.04096 14.94 5.36096 14.28C6.56096 14 7.26096 13.12 7.46096 12.23C7.63096 11.43 7.32096 10.77 7.19096 10C7.07096 9.26 7.09096 8.63 7.39096 7.94C7.54096 8.32 7.74096 8.7 7.97096 9C8.73096 10 9.92096 10.44 10.171 11.8C10.211 11.94 10.231 12.08 10.231 12.23C10.261 13.05 9.91096 13.95 9.31096 14.49L9.32096 14.5Z" fill="inherit"/>
</g>
<g id="four">
    <path d="M15 5H1.6V3.3H15V5ZM13.3 0H3.3V1.6H13.3V0ZM16.6 8.3V15C16.6 16 15.9 16.6 15 16.6H1.6C0.6 16.6 0 15.9 0 15V8.3C0 7.3 0.7 6.6 1.6 6.6H15C16 6.6 16.6 7.4 16.6 8.3ZM11.6 11.6L6.6 8.9V14.3L11.6 11.6Z" fill="inherit"/>
</g>
</svg> 
  